<?xml version="1.0" standalone="no"?>
<!DOCTYPE svg PUBLIC "-//W3C//DTD SVG 1.1//EN" "http://www.w3.org/Graphics/SVG/1.1/DTD/svg11.dtd" >
<!--
2013-9-30: Created.
-->
<svg>
<metadata>
Created by iconfont
</metadata>
<defs>

<font id="iconfont" horiz-adv-x="1024" >
  <font-face
    font-family="iconfont"
    font-weight="500"
    font-stretch="normal"
    units-per-em="1024"
    ascent="896"
    descent="-128"
  />
    <missing-glyph />
    
    <glyph glyph-name="x" unicode="x" horiz-adv-x="1001"
d="M281 543q-27 -1 -53 -1h-83q-18 0 -36.5 -6t-32.5 -18.5t-23 -32t-9 -45.5v-76h912v41q0 16 -0.5 30t-0.5 18q0 13 -5 29t-17 29.5t-31.5 22.5t-49.5 9h-133v-97h-438v97zM955 310v-52q0 -23 0.5 -52t0.5 -58t-10.5 -47.5t-26 -30t-33 -16t-31.5 -4.5q-14 -1 -29.5 -0.5
t-29.5 0.5h-32l-45 128h-439l-44 -128h-29h-34q-20 0 -45 1q-25 0 -41 9.5t-25.5 23t-13.5 29.5t-4 30v167h911zM163 247q-12 0 -21 -8.5t-9 -21.5t9 -21.5t21 -8.5q13 0 22 8.5t9 21.5t-9 21.5t-22 8.5zM316 123q-8 -26 -14 -48q-5 -19 -10.5 -37t-7.5 -25t-3 -15t1 -14.5
t9.5 -10.5t21.5 -4h37h67h81h80h64h36q23 0 34 12t2 38q-5 13 -9.5 30.5t-9.5 34.5q-5 19 -11 39h-368zM336 498v228q0 11 2.5 23t10 21.5t20.5 15.5t34 6h188q31 0 51.5 -14.5t20.5 -52.5v-227h-327z" />
    

    
    <glyph glyph-name="icondiannao" unicode="&#58981;" d="M939.301458 716.089603 80.604294 716.089603c-28.180829 0-51.106981-21.819958-51.106981-48.640814l0-512.641613c0-26.819832 22.927175-48.63979 51.106981-48.63979l335.207481 0 0-173.36342-133.889383 0c-14.34266 0-25.970488-11.623735-25.970488-25.969465 0-14.34266 11.627828-25.966395 25.970488-25.966395l460.158285 0c14.340613 0 25.966395 11.623735 25.966395 25.966395 0 14.34573-11.625782 25.969465-25.966395 25.969465L608.187201-67.196033 608.187201 106.167387l331.114257 0c28.180829 0 51.106981 21.819958 51.106981 48.63979L990.408439 667.44879C990.409462 694.268622 967.482287 716.089603 939.301458 716.089603zM925.941172 651.621313l0-322.893015L93.96458 328.728298 93.96458 651.621313 925.941172 651.621313zM544.742217-67.196033l-65.485457 0L479.25676 106.167387l65.485457 0L544.742217-67.196033zM93.96458 170.635677l0 94.647637 831.975569 0 0-94.647637L93.96458 170.635677z"  horiz-adv-x="1024" />

    
    <glyph glyph-name="jia" unicode="&#58881;" d="M960 460.8 588.8 460.8 588.8 832 435.2 832 435.2 460.8 64 460.8 64 307.2 435.2 307.2 435.2-64 588.8-64 588.8 307.2 960 307.2Z"  horiz-adv-x="1024" />

    
    <glyph glyph-name="icon" unicode="&#58880;" d="M912.210961 462.307484 530.098193 788.566152c-0.315178 0.26913-0.652869 0.506537-0.981351 0.757247-0.559748 0.603751-1.154289 1.191128-1.807159 1.74883-9.179057 7.837502-24.062022 7.837502-33.241079 0L111.792109 464.673367c-9.179057-7.837502-9.179057-20.544919 0-28.382421s24.062022-7.837502 33.241079 0l30.31033 25.879414 0-409.130098c0-45.282323 36.70804-81.990363 81.990363-81.990363l515.370771 0c45.282323 0 81.990363 36.70804 81.990363 81.990363L854.695013 454.673619l24.287149-20.7373c9.174963-7.834432 24.051789-7.834432 33.226752 0C921.385924 441.770751 921.385924 454.473051 912.210961 462.307484zM807.843962 53.041286c0-19.407002-15.732309-35.139312-35.139312-35.139312L526.531971 17.901974c0.635473 1.801019 0.998747 3.727904 0.998747 5.743818 0 0-5.887081 46.970778-5.887081 94.668103 0 39.195697 4.185322 82.806961 7.566326 111.63759 19.600407-3.350304 46.480614 2.397606 72.248488 17.102516 40.828894 23.298636 63.383586 60.235896 50.378387 82.500992-13.005198 22.265096-56.647161 21.427008-97.476055-1.87265-25.659403-14.642488-44.093241-34.670637-51.02614-53.058426-1.094938-1.071402-2.037403-2.291183-2.820232-3.615341-8.425903 9.924024-20.017916 19.466354-33.94716 27.2926-37.152155 20.871353-76.863598 21.62246-88.698135 1.677199s8.689916-53.032844 45.842071-73.904197c24.417109-13.716396 49.937342-18.741853 67.925019-14.913665-2.741437-26.111704-5.315052-58.71117-5.315052-89.061408 0-49.28345 5.887081-98.451266 5.887081-98.451266 0-2.01489 0.363274-3.942799 0.998747-5.743818L257.334903 17.904021c-19.407002 0-35.139312 15.732309-35.139312 35.139312L222.195591 498.134457l-4.731768 0 293.165969 250.312976L807.843962 494.676705 807.843962 53.041286z"  horiz-adv-x="1024" />

    
    <glyph glyph-name="jiaoshui" unicode="&#58915;" d="M280.983509 692.013119c6.467295 10.232039 12.936637 19.422352 18.345834 29.199019C326.937121 771.111618 367.401718 805.537685 422.066735 822.103989 538.384927 857.353818 658.840346 784.477021 683.94921 664.43911c11.251252-53.788044 2.429329-104.595196-25.216311-152.192238-6.055926-10.42749-11.095709-21.444405-16.960277-32.885991 47.14781-17.945721 93.808526-35.706223 141.123135-53.715389 6.285147 23.335475 12.489452 46.369074 18.790972 69.765947 10.450003-2.803859 20.414959-5.477758 30.879288-8.28571-16.59905-61.945841-33.098839-123.523291-49.744961-185.647187-10.344602 2.753717-20.300348 5.405103-30.884404 8.222265 5.495154 20.640086 10.899234 40.937364 16.464997 61.844533-14.065344-0.871857-27.478841-1.677199-40.889269-2.540869-34.706453-2.237971-69.410859-4.511757-104.117312-6.749728-11.909238-0.76748-23.815405-1.633197-35.737946-2.105964-3.574409-0.14224-4.520967-2.332115-5.714142-4.795213-26.276457-54.251601-52.564169-108.498086-78.845743-162.747641-9.725502-20.075221-19.435655-40.156582-29.163203-60.23078-0.734734-1.515516-1.550309-2.992147-2.682086-5.16565C335.772346 206.553589 200.49229 285.781024 64.88273 365.201865c15.567557 23.583115 30.843472 46.725184 46.252417 70.067822-16.305361 7.232728-19.539009 22.335704-22.425755 37.239136-4.576225 23.629163-3.857864 47.539736-1.960655 71.374584 2.955308 37.120432 9.402137 73.615625 20.198018 109.326964 9.17087 30.337959 24.665773 56.389288 50.031487 75.973322 15.274892 11.793604 32.276101 19.35686 51.668777 21.518083 27.770484 3.094478 54.244438-12.744255 65.956178-40.177048C276.988522 704.936453 278.597159 699.01458 280.983509 692.013119zM616.414071 493.928668c-103.722316 60.747549-207.141734 121.318066-310.889633 182.079942-8.390088-12.406564-16.615423-24.294312-24.509207-36.397978-2.65855-4.076852-4.589528-8.650007-6.647397-13.09218-3.572362-7.712659-6.450922-15.808034-10.680247-23.130813-2.220574-3.844561-6.265704-7.243985-10.284227-9.235338-2.859118-1.416256-5.063319-2.716878-6.826476-5.331425-46.974871-69.660546-93.997837-139.287323-141.008524-208.92331-0.928139-1.375324-1.791809-2.794649-2.929726-4.574179 119.603005-70.048379 238.888785-139.91154 358.617657-210.033597C513.075495 275.047566 564.65729 384.302899 616.414071 493.928668zM630.351502 518.001947c37.572734 62.917982 43.228547 127.513162 7.290033 191.585433-37.685297 67.186192-97.460706 99.101065-174.467567 92.096535-66.230424-6.024204-113.009843-42.947138-143.94746-101.467973C423.068552 639.399831 526.495132 578.827267 630.351502 518.001947zM125.673258 457.505108c0.63445 0.88823 1.345648 1.819438 1.990331 2.795673 41.128723 62.245669 82.257445 124.491339 123.345236 186.762591 1.00591 1.524726 1.880837 3.273557 2.279926 5.039783 2.550079 11.256368 3.192715 22.650883 0.910743 33.987069-3.485381 17.310248-11.893888 30.854728-30.067806 35.803437-11.738345 3.196809-23.085788 0.867764-33.731242-4.362354-26.844392-13.190417-43.809785-35.072797-53.747111-62.748113-10.332323-28.777417-16.767895-58.545394-21.48636-88.689948-3.90289-24.930809-7.066953-49.944506-5.301749-75.286684C110.770849 477.818759 112.318088 465.109296 125.673258 457.505108zM779.208784 411.822672c-1.36509 0.490164-2.142803 0.819668-2.949168 1.049912-48.739051 13.945617-97.489358 27.847232-146.195663 41.905412-3.046383 0.87902-4.172019-0.066515-5.536087-2.483564-12.211113-21.647019-24.538883-43.227524-36.811394-64.839751-0.692778-1.220804-1.206478-2.542916-2.13257-4.52199 3.225461 0 5.582135 0.011256 7.937786-0.002047 36.807301-0.197498 73.614601-0.373507 110.420879-0.608867 20.958334-0.134053 41.915645-0.349971 62.872956-0.584308 2.503007-0.027629 4.516874-0.135076 5.305843 3.145643C774.268262 393.800203 776.765129 402.633383 779.208784 411.822672zM833.611835 222.196871c1.685385 29.967522 3.846608 59.865459 10.233062 89.246627 1.939165 8.922207 5.152347 17.584494 8.087189 26.263154 0.906649 2.680039 2.609431 5.177929 4.319375 7.482415 5.02341 6.767124 11.295254 7.997138 17.469883 2.295276 5.302773-4.89652 10.096962-10.671037 13.891382-16.813944 13.3214-21.568225 22.239514-45.166689 29.566386-69.288063 4.686742-15.427364 8.778944-31.133068 11.689227-46.979988 5.078669-27.64564-14.992459-52.927443-43.10882-55.607482-27.255761-2.598174-51.572586 19.325138-52.132334 47.052642C833.517691 211.29559 833.611835 216.746742 833.611835 222.196871zM866.683045 319.243137c-0.743944-0.105401-1.487887-0.209778-2.232854-0.315178-0.740874-3.654226-2.214435-7.328919-2.110057-10.958586 0.989537-34.217313 2.038426-68.436672 3.564175-102.633518 0.429789-9.623171 9.072633-15.804964 18.11559-14.373359 9.262968 1.466398 15.207353 9.495258 13.263072 18.968004-3.830235 18.661012-7.687076 37.334303-12.31549 55.807027-3.590781 14.334473-8.218172 28.420283-12.720719 42.510186C871.0147 312.110693 868.572068 315.587887 866.683045 319.243137zM961.710328-16.686798c-0.029676-26.733874-20.661575-48.244794-45.762253-48.877197-27.423583-0.690732-49.807383 18.941398-49.958832 46.379307-0.218988 39.71656 2.682086 79.322603 12.781094 117.986181 1.825578 6.988158 4.762467 13.892405 8.360412 20.161179 5.362124 9.341762 13.020548 10.391674 20.470217 2.677992 5.494131-5.688559 10.532891-12.173251 14.31196-19.101033 19.299555-35.378765 31.863708-73.194022 39.281655-112.750947C961.663256-12.707161 961.607998-15.299195 961.710328-16.686798zM898.484332 94.810598c-0.554632-0.127913-1.110287-0.255827-1.665942-0.38374-0.639566-2.003634-1.626034-3.969405-1.851161-6.019087-0.557702-5.070482-1.235131-10.197246-1.038656-15.268752 1.193175-30.80254 2.611477-61.596893 3.989871-92.39227 0.052189-1.167592 0.341784-2.359744 0.719384-3.472078 2.673899-7.869225 10.774391-12.398378 18.637476-10.472516 8.891508 2.177596 14.031575 9.991562 12.034081 19.504216-3.984754 18.974144-7.938809 37.97387-12.749372 56.747445-3.749394 14.634302-8.659217 28.979008-13.325493 43.364647C902.263401 89.413682 900.099109 92.023112 898.484332 94.810598z"  horiz-adv-x="1024" />

    
    <glyph glyph-name="kaifa" unicode="&#58927;" d="M896.652 805.261h-769.954c-38.138 0-58.923-23.597-58.923-65.19v-626.651c0-41.595 20.785-65.19 58.923-65.19h769.954c38.14 0 58.925 23.595 58.925 65.19v626.65c-0.004 41.59-20.785 65.191-58.925 65.191zM126.698 770.501h769.954c15.57 0 28.23-14.78 28.23-32.95v-178.44h-826.414v178.44c0 18.169 12.662 32.95 28.23 32.95zM896.652 78.919h-769.954c-15.568 0-28.23 13.71-28.23 30.57v411.131h826.415v-411.131c-0.001-16.86-12.661-30.57-28.231-30.57zM202.776 666.523c-0.007-23.868 19.333-43.225 43.2-43.235s43.225 19.333 43.235 43.2c0 0.012 0 0.022 0 0.035 0.010 23.868-19.333 43.225-43.2 43.235-23.868 0.008-43.225-19.333-43.235-43.2 0-0.013 0-0.023 0-0.035zM319.948 666.523c-0.010-23.868 19.333-43.225 43.2-43.235s43.225 19.333 43.235 43.2c0 0.012 0 0.022 0 0.035 0.010 23.868-19.333 43.225-43.2 43.235-23.868 0.008-43.225-19.333-43.235-43.2 0-0.013 0-0.023 0-0.035zM437.119 666.523c0 23.868 19.35 43.218 43.218 43.218 23.87 0 43.215-19.35 43.215-43.218v0c0-23.87-19.345-43.218-43.215-43.218-23.868 0-43.218 19.348-43.218 43.218v0zM463.464 187.859l33.535-0.235 74.373 231.551-33.42-0.057-74.488-231.259zM202.593 295.129l-0.042-11.745 0.022-11.925 150.428-58.8 0.015 27.7-96.298 42.13 96.953 38.61 0.142 28.89-151.22-54.86zM687.072 347.554l0.145-28.885 96.955-38.61-96.3-42.13 0.015-27.71 150.425 58.805 0.020 11.925-0.040 11.745-151.22 54.86z"  horiz-adv-x="1024" />

    
    <glyph glyph-name="kaifa2" unicode="&#58990;" d="M850.102 711.977 172.68 711.977c-33.553 0-46.72-15.642-46.72-41.995l0-551.344c0-46.835 13.165-62.475 46.72-62.475l677.422 0c33.56 0 46.73 15.64 46.73 62.475L896.832 669.979C896.822 696.332 883.662 711.977 850.102 711.977zM172.68 686.512l677.422 0c13.7 0 24.84-13.003 24.84-28.99l0-156.995L147.84 500.527 147.84 657.522c0 15.985 11.14 28.99 24.838 28.99L172.68 686.512zM850.102 78.043 172.68 78.043c-13.695 0-24.835 12.065-24.835 26.895L147.845 476.901l727.097 0 0-371.964c0-14.83-11.135-26.895-24.835-26.895L850.102 78.042zM239.616 595.029c-0.007-20.998 17.01-38.03 38.008-38.038 20.998-0.01 38.03 17.01 38.04 38.008 0 0.01 0 0.02 0 0.03 0.007 21-17.01 38.03-38.008 38.04-21 0.007-38.03-17.01-38.04-38.008C239.616 595.049 239.616 595.042 239.616 595.029zM342.706 595.029c-0.008-20.998 17.01-38.03 38.01-38.038 20.998-0.01 38.03 17.01 38.038 38.008 0 0.01 0 0.02 0 0.03 0.01 21-17.01 38.03-38.008 38.04-21 0.007-38.03-17.01-38.04-38.008C342.706 595.049 342.706 595.042 342.706 595.029zM445.796 595.029c0 21 17.025 38.025 38.025 38.025 21 0 38.02-17.025 38.02-38.025l0 0c0-21-17.017-38.022-38.02-38.022C462.821 557.007 445.796 574.029 445.796 595.029L445.796 595.029zM468.974 173.888l29.508-0.205 65.435 203.726-29.405-0.05-65.535-203.47L468.974 173.889zM239.456 268.268l-0.037-10.33 0.018-10.495 132.35-51.735 0.015 24.37-84.725 37.07 85.3 33.97 0.125 25.415L239.456 268.268 239.456 268.268zM665.712 314.393l0.13-25.415 85.3-33.97-84.73-37.065 0.02-24.38 132.345 51.735 0.015 10.495-0.035 10.335L665.712 314.393 665.712 314.393z"  horiz-adv-x="1024" />

    
    <glyph glyph-name="diannao" unicode="&#58885;" d="M526.741237 186.171376l413.659251 0c9.923 0 17.968234 8.04421 17.968234 17.968234l0 575.535035c0 9.782807-8.04421 17.96721-17.968234 17.96721l-863.286692 0c-9.923 0-17.96721-8.04421-17.96721-17.96721l0-575.535035c0-9.783831 8.043187-17.968234 17.96721-17.968234L490.774071 186.171376c0-0.01842 0-0.033769 0-0.052189l0-161.808246-206.716039 0c-15.138792 0-27.081799-12.082176-27.081799-26.975375 0-14.997576 12.119015-26.975375 27.081799-26.975375l449.400267 0c15.139815 0 27.081799 12.082176 27.081799 26.975375 0 14.997576-12.117992 26.975375-27.081799 26.975375L526.741237 24.310941 526.741237 186.119187C526.741237 186.136583 526.741237 186.152956 526.741237 186.171376zM113.100406 303.069783c0 14.894222 12.119015 26.977421 27.01119 26.977421l737.292116 0c14.909571 0 27.01119-11.977799 27.01119-26.977421 0-14.894222-12.120039-26.975375-27.01119-26.975375l-737.292116 0C125.201002 276.094408 113.100406 288.072207 113.100406 303.069783z"  horiz-adv-x="1024" />

    
    <glyph glyph-name="dapeng" unicode="&#58895;" d="M945.604512 468.839247 531.606547 822.32093c-0.343831 0.291642-0.708128 0.551562-1.063215 0.820692-0.607844 0.655939-1.248434 1.290389-1.956561 1.893116-9.945513 8.491395-26.069749 8.491395-36.016285 0L78.399581 471.405699c-9.945513-8.491395-9.945513-22.261003 0-30.752398 9.945513-8.491395 26.069749-8.491395 36.016285 0l32.835849 28.037567 0-443.267593c0-49.060369 39.771819-88.827071 88.832188-88.827071l558.372144 0c49.062416 0 88.828095 39.765679 88.828095 88.827071L883.284141 460.570933l26.314319-22.467711c9.940396-8.490372 26.059516-8.490372 35.999912 0C955.544909 446.5895 955.544909 460.353992 945.604512 468.839247zM605.654007 195.700403c-27.921933-15.927761-57.044204-22.160719-78.279854-18.525935-3.660366-31.239492-8.198729-78.485539-8.198729-120.955816 0-51.674916 6.380314-102.56598 6.380314-102.56598 0-2.184759-0.391926-4.270257-1.079588-6.221702l-36.105313 0c-0.687662 1.951445-1.084705 4.041036-1.084705 6.226818 0 0-6.380314 53.267181-6.380314 106.661252 0 32.883945 2.792603 68.206428 5.761214 96.493681-19.48989-4.148483-47.136553 1.295506-73.592089 16.161075-40.253796 22.60995-62.488193 58.456367-49.67026 80.06757 12.824073 21.61018 55.848982 20.796652 96.101755-1.814322 15.093766-8.479115 27.65178-18.816554 36.777625-29.572526 0.851391 1.434675 1.87265 2.75781 3.057639 3.920286 7.512091 19.917632 27.482935 41.617863 55.282071 57.483202 44.23855 25.245987 91.52246 26.15059 105.609293 2.026146C674.327062 260.966872 649.885394 220.94639 605.654007 195.700403z"  horiz-adv-x="1024" />

    
    <glyph glyph-name="pingguo" unicode="&#58891;" d="M755.472961 350.351362c-1.125612 166.078945 92.197861 170.376736 96.393325 173.037274-52.494454 76.746278-134.152493 88.821025-163.21375 89.946637-69.480963 7.060658-135.58509-40.112721-170.888378-40.112721-35.200959 0-89.639652 40.215049-147.250525 39.191766-75.722994-1.125612-145.613271-43.898871-184.702708-111.74258-78.690517-136.608374-20.158689-338.911562 56.587589-449.630858 37.452183-54.234036 82.169681-115.119416 140.906166-112.970521 56.48526 2.251224 77.87189 36.633557 146.227241 36.633557s87.490756-36.633557 147.352853-35.405616c60.783052 1.125612 99.360847 55.25732 136.506046 109.696013 43.080244 62.931948 60.783052 120.747477 61.806336 123.817328-1.330269 0.61397-118.598581 66.820426-119.826521 177.539722L755.472961 350.351362 755.472961 350.351362zM511.829112 607.604885c0 123.203358 99.872489 223.178175 223.178175 223.178175C735.007287 707.477374 635.032469 607.604885 511.829112 607.604885z"  horiz-adv-x="1024" />

    
    <glyph glyph-name="weixin1" unicode="&#58914;" d="M605.973278 384.568958c-16.238846 0-32.479739-14.81645-32.479739-33.054837 0-14.81952 16.235776-29.650297 32.479739-29.650297 24.375154 0 41.776476 14.8318 41.776476 29.650297C647.749754 369.753531 630.348432 384.568958 605.973278 384.568958L605.973278 384.568958 605.973278 384.568958zM499.237325 538.502863c25.52535 0 41.770336 15.963577 41.770336 39.910988 0 25.077142-16.244986 39.904849-41.770336 39.904849-24.365944 0-47.574528-14.82873-47.574528-39.904849C451.662797 554.450067 474.871381 538.502863 499.237325 538.502863L499.237325 538.502863 499.237325 538.502863zM377.403512 206.702991c-42.932812 0-74.262354 6.834662-114.869191 18.24555l-117.189026-58.156538 33.655518 98.06548C96.617501 321.856661 47.886637 393.691733 47.886637 481.490382c0 155.065681 148.515498 273.64538 329.516876 273.64538 160.121837 0 302.84133-93.491301 330.686515-225.774093-11.609409 2.294252-22.049179 3.432169-31.332612 3.432169-157.798932 0-279.617395-116.298749-279.617395-256.54798 0-23.932062 3.473101-45.601594 9.277294-68.414159C397.140019 206.702991 386.686946 206.702991 377.403512 206.702991L377.403512 206.702991 377.403512 206.702991zM861.250312 94.969211l23.199375-82.104973-88.184435 49.027623c-33.643238-6.837732-66.135256-17.095353-99.784634-17.095353-155.473981 0-278.464129 104.889909-278.464129 234.878448 0 129.97933 122.990149 234.878448 278.464129 234.878448 147.359162 0 279.632745-104.899118 279.632745-234.878448C976.113363 206.702991 926.220023 141.721001 861.250312 94.969211L861.250312 94.969211 861.250312 94.969211zM269.49485 618.3187c-24.362874 0-49.89027-14.82873-49.89027-39.904849 0-23.948435 25.52842-39.910988 49.89027-39.910988 23.211654 0 41.773406 15.963577 41.773406 39.910988C311.268256 603.490993 292.707528 618.3187 269.49485 618.3187L269.49485 618.3187 269.49485 618.3187zM788.144294 384.568958c-17.407462 0-32.485879-14.81645-32.485879-33.054837 0-14.81952 15.078417-29.650297 32.485879-29.650297 23.205515 0 40.612976 14.8318 40.612976 29.650297C828.757271 369.753531 811.349809 384.568958 788.144294 384.568958L788.144294 384.568958 788.144294 384.568958zM788.144294 384.568958"  horiz-adv-x="1024" />

    
    <glyph glyph-name="dianhua" unicode="&#58888;" d="M809.370223 486.120842c-93.231381 30.68179-55.840796 89.130993-111.830995 111.832018-95.059006 38.546921-186.391131 37.281091-186.391131 37.281091s-91.031273 0.968048-186.387038-37.281091c-56.103786-22.512736-18.60473-81.149205-111.836111-111.832018-98.559736-32.432667-150.004409 15.096836-148.959613 73.812099 0.740874 39.36352 24.972764 83.760682 74.405617 112.578008 126.557394 73.808006 372.776122 74.55502 372.776122 74.55502s246.223844-0.748037 372.780215-74.55502c49.055253-28.630061 73.325006-72.579015 74.365708-111.721501C959.860702 501.665887 908.4191 453.540819 809.370223 486.120842L809.370223 486.120842zM383.915321 512.59582l63.444984 0 0-63.956637 127.913275 0 0 63.956637 63.956637 0 0-63.956637 256.167311-223.464491 0-149.109016c0-41.154305-44.871977-74.557066-86.027305-74.557066L212.923926 1.508609c-41.153282 0-85.005023 33.403784-85.005023 74.557066L127.918903 225.174692l255.997442 223.464491L383.916345 512.59582 383.915321 512.59582zM511.898181 96.14192c70.621431 0.001023 127.877459 57.256028 127.877459 127.872343 0 70.623477-57.256028 127.878482-127.877459 127.878482-70.616314 0-127.873366-57.255005-127.873366-127.878482C384.024815 153.397948 441.281867 96.14192 511.898181 96.14192L511.898181 96.14192z"  horiz-adv-x="1024" />

    
    <glyph glyph-name="shui" unicode="&#58991;" d="M547.392 878.976c-1.408 11.264-19.904 11.264-21.312 0C479.424 502.656 243.008 425.728 243.008 169.28c0-160.32 134.464-290.304 293.76-290.304 159.232 0 293.696 129.984 293.696 290.304C830.464 425.728 594.048 502.656 547.392 878.976zM536.704-67.776c-130.432 0-240.512 106.368-240.512 237.632 0 212.416 185.088 294.464 240.576 528.32 2.112 9.024-2.176 1.792 0-7.232 53.056-218.048 249.024-329.472 240.384-521.152C771.264 38.72 667.072-67.776 536.704-67.776zM587.648-5.952c-14.464 0-26.176 12.16-26.176 27.136 0 14.976 11.712 27.136 26.176 27.136 36.032 0 65.344 30.272 65.344 67.584 0 14.976 11.712 27.136 26.176 27.136 10.816 0 20.16-6.784 24.128-16.512 1.344-3.264 2.112-6.848 2.112-10.624C705.28 48.704 652.48-5.952 587.648-5.952L587.648-5.952zM601.088 16"  horiz-adv-x="1024" />

    
    <glyph glyph-name="shui1" unicode="&#58977;" d="M522.804578 887.411391c-1.419326 11.419074-20.191878 11.419074-21.611204 0-47.03013-379.094014-287.470247-457.187627-287.470247-720.626551 0-162.797783 136.541793-294.760281 298.308083-294.760281 161.702845 0 298.243615 131.962497 298.243615 294.760281C810.274826 430.223764 569.834708 508.316354 522.804578 887.411391zM573.609685-58.673052c-16.935718 0-30.579459 13.676487-30.579459 30.579459s13.70821 30.579459 30.579459 30.579459c42.126446 0 76.383668 34.129308 76.383668 76.158541 0 16.902972 13.676487 30.579459 30.579459 30.579459 12.676717 0 23.547299-7.645121 28.192086-18.579147 1.581008-3.677762 2.451842-7.742335 2.451842-12.000312C711.215716 2.905422 649.476583-58.673052 573.609685-58.673052z"  horiz-adv-x="1024" />

    
    <glyph glyph-name="pingguo1" unicode="&#59294;" d="M393.936047-63.889867l-3.311418 0.022513c-88.729857 1.666966-162.700569 120.872928-202.348568 231.885278-47.809889 133.859707-32.691563 244.927315 44.936445 330.096067 48.273447 52.980655 105.266485 64.107063 144.580886 64.107063 39.419801 0 68.073398-10.959609 69.276806-11.426237l67.550489-21.824051 93.282547 30.163997c21.872147 5.443989 42.172495 8.042163 61.615312 8.042163 112.819508 0 163.737178-84.501556 165.83291-88.098477l11.366885-19.335371-21.230534-7.253194c-2.787486-0.99977-71.576175-26.828019-74.125231-130.975007-2.597151-104.289228 91.232864-140.697439 95.235015-142.197606l16.391319-6.149047-5.385661-16.677844c-1.403976-4.288676-35.096333-105.909122-103.290481-174.960801-29.592992-29.973662-58.470693-43.937698-90.90029-43.937698-16.630772 0-33.9533 3.573385-56.133461 11.625781-41.437761 14.987343-70.099545 18.964934-70.384024 19.01303-39.467897-0.165776-58.853409-8.553817-77.603449-16.677845-17.514909-7.603165-35.624359-15.439644-65.358567-15.439644l0.00307-0.00307z m-16.140608 589.508282c-46.449915 0-86.002746-17.545608-117.53695-52.155871-67.798129-74.386174-80.414471-173.017542-37.502126-293.151643C259.33035 77.878974 325.640592-26.05312 391.317407-27.267784l2.62171-0.022513c22.145369 0 34.787294 5.481851 50.79999 12.413727 21.147646 9.150404 45.105291 19.539009 92.399433 19.539009l4.599761-0.166799c1.310855-0.165776 32.523741-4.408403 78.008679-20.872377 18.012236-6.528694 31.474852-9.43386 43.674708-9.433859 22.279423 0 42.290175 10.19827 64.8551 33.073256 47.366797 47.962362 77.365019 115.821889 89.01536 145.605216-33.332153 17.96414-105.028055 68.478627-102.527095 169.55058 2.263553 92.233658 48.77282 135.693472 77.222779 153.73129-18.157545 20.669762-57.756425 54.431703-122.471332 54.431704-16.463973 0-33.833573-2.227738-51.608402-6.622838l-103.290481-33.440623-79.817883 25.814945c-1.181919 0.418532-24.805966 9.292644-57.007365 9.292644l0.00307-0.007163z m116.048039 69.455885l-1.632173 17.740036c-0.177032 1.905396-14.962783 190.792371 213.904764 216.919425l18.895349 2.157129 1.430582-18.964934c0.237407-3.323699 5.481851-82.060971-48.821938-144.555303-37.480636-43.125193-93.329619-67.405179-166.000732-72.135924l-17.774829-1.15429-0.001023-0.006139zM689.363524 790.357961c-135.693472-23.803125-157.566642-115.786073-160.54344-155.74311 52.752458 6.658653 93.376691 25.946952 120.896464 57.444317 29.473265 33.714869 37.550221 74.529437 39.646976 98.298793z"  horiz-adv-x="1024" />

    
    <glyph glyph-name="QQ" unicode="&#59198;" d="M512 896C229.003636 896 0 666.996364 0 384s229.003636-512 512-512 512 229.003636 512 512S794.996364 896 512 896z m210.385455-641.396364c-7.447273-9.309091-26.996364 1.861818-41.89091 32.581819-3.723636-13.963636-13.032727-36.305455-34.443636-64.232728 35.374545-8.378182 44.683636-42.821818 33.512727-61.44-8.378182-13.032727-26.996364-24.203636-59.578181-24.203636-58.647273 0-83.781818 15.825455-95.883637 26.996364-1.861818 2.792727-5.585455 3.723636-10.24 3.723636-4.654545 0-7.447273-0.930909-10.24-3.723636-11.170909-11.170909-37.236364-26.996364-95.883636-26.996364-32.581818 0-52.130909 11.170909-59.578182 24.203636-12.101818 18.618182-1.861818 53.061818 33.512727 61.44-20.48 27.927273-29.789091 50.269091-34.443636 64.232728-13.963636-30.72-34.443636-42.821818-41.890909-32.581819-5.585455 8.378182-8.378182 26.065455-7.447273 38.167273 3.723636 46.545455 34.443636 85.643636 53.061818 106.123636-2.792727 5.585455-8.378182 40.029091 14.894546 63.301819v1.861818c0 92.16 65.163636 158.254545 148.014545 158.254545 81.92 0 148.014545-66.094545 148.014546-158.254545v-1.861818c23.272727-23.272727 17.687273-57.716364 14.894545-63.301819 17.687273-20.48 49.338182-59.578182 53.061818-106.123636 0.930909-12.101818-0.930909-29.789091-7.447272-38.167273z"  horiz-adv-x="1024" />

    
    <glyph glyph-name="tuijian" unicode="&#58887;" d="M121.344 865.28v-993.28l397.312 167.936 397.312-167.936V865.28h-794.624z m188.416-235.52c24.064-1.536 44.032-2.048 59.904-2.048h59.904c0 13.312-0.512 28.672-2.048 46.08h39.936c-1.536-17.408-2.048-32.768-2.048-46.08h116.224c0 13.312-0.512 28.672-2.048 46.08h39.936c-1.536-17.408-2.048-32.768-2.048-46.08h61.952c15.872 0 37.888 0.512 66.048 2.048v-35.84c-26.624 1.536-48.64 2.048-66.048 2.048h-61.952c0-6.656 0.512-19.456 2.048-37.888h-39.936c1.536 15.872 2.048 28.672 2.048 37.888H465.92c0-9.216 0.512-22.016 2.048-37.888h-39.936c1.536 17.408 2.048 30.208 2.048 37.888h-59.904c-14.848 0-34.816-0.512-59.904-2.048v35.84z m81.92-416.256c1.536 22.528 2.048 46.592 2.048 72.192v103.936c-25.6-26.624-50.688-49.152-75.776-68.096-8.192 11.776-17.92 24.064-30.208 35.84 28.16 14.848 54.784 33.792 80.896 57.856s49.664 50.176 71.168 77.824h-61.952c-17.408 0-39.424-0.512-66.048-2.048v35.84c24.064-1.536 44.032-2.048 59.904-2.048h88.064c9.216 15.872 17.408 32.768 24.064 50.176 14.848-8.192 30.72-13.824 48.128-17.92-11.776-9.216-21.504-19.968-28.16-31.744h158.208c21.504 0 45.056 0.512 72.192 2.048v-35.84c-26.624 1.536-50.688 2.048-72.192 2.048h-176.128c-15.872-19.968-33.792-41.984-53.76-66.048v-141.824c0-25.088 0.512-49.152 2.048-72.192h-42.496z m356.352 118.272c-22.528 1.536-46.592 2.048-72.192 2.048h-50.176v-75.776c0-17.408-6.144-28.672-18.944-33.792s-34.816-9.216-67.072-11.776c0 10.752-6.144 24.576-17.92 41.984 24.064-1.536 40.448-2.048 50.176-2.048 10.752 0 15.872 7.168 15.872 22.016v59.904H512c-17.408 0-35.84-0.512-55.808-2.048v35.84c19.968-1.536 39.424-2.048 57.856-2.048h72.192c0 8.192-0.512 16.896-2.048 26.112 18.432 8.192 35.84 17.92 52.224 30.208h-94.208c-19.968 0-41.472-0.512-64-2.048v35.84c22.528-1.536 45.568-2.048 68.096-2.048h169.984v-31.744c-14.848-2.56-29.184-7.68-43.008-14.848s-29.696-16.384-47.104-27.136v-13.824h50.176c24.064 0 48.128 0.512 72.192 2.048v-36.864zM429.568 595.456c0-8.192-0.512-20.48-2.048-37.888h39.936c-1.536 15.872-2.048 28.672-2.048 37.888h116.224c0-9.216-0.512-22.016-2.048-37.888h39.936c-1.536 18.432-2.048 31.232-2.048 37.888h61.952c17.408 0 39.424-0.512 66.048-2.048v35.84c-28.16-1.536-50.176-2.048-66.048-2.048h-61.952c0 13.312 0.512 28.672 2.048 46.08h-39.936c1.536-17.408 2.048-32.768 2.048-46.08H465.92c0 13.312 0.512 28.672 2.048 46.08h-39.936c1.536-17.408 2.048-32.768 2.048-46.08h-59.904c-15.872 0-35.84 0.512-59.904 2.048v-35.84c25.088 1.536 45.568 2.048 59.904 2.048h59.392zM625.664 365.568v13.824c17.408 10.752 32.768 19.456 47.104 27.136 13.824 7.168 28.16 12.288 43.008 14.848v31.744h-169.984c-22.528 0-45.568 0.512-68.096 2.048v-35.84c22.528 1.536 44.032 2.048 64 2.048h94.208c-15.872-11.776-33.28-22.016-52.224-30.208 1.536-9.216 2.048-17.92 2.048-26.112h-72.192c-18.432 0-37.888 0.512-57.856 2.048v-35.84c19.968 1.536 38.4 2.048 55.808 2.048h75.776v-59.904c0-14.848-5.12-22.016-15.872-22.016-9.216 0-26.112 0.512-50.176 2.048 11.776-17.408 17.92-31.232 17.92-41.984 31.744 2.56 54.272 6.656 67.072 11.776 12.8 5.12 18.944 16.896 18.944 33.792V332.8h50.176c25.088 0 49.152-0.512 72.192-2.048v35.84c-24.064-1.536-48.128-2.048-72.192-2.048h-49.664zM431.616 427.52c19.968 24.064 37.888 46.08 53.76 66.048h176.128c21.504 0 45.056-0.512 72.192-2.048v35.84c-26.624-1.536-50.688-2.048-72.192-2.048h-158.208c6.656 11.776 15.872 22.528 28.16 31.744-17.408 4.096-33.28 10.24-48.128 17.92-6.656-17.408-14.848-33.792-24.064-50.176h-88.064c-15.872 0-35.84 0.512-59.904 2.048v-35.84c26.624 1.536 48.64 2.048 66.048 2.048h61.952c-21.504-28.16-45.056-53.76-71.168-77.824s-53.248-43.52-80.896-57.856c11.776-11.776 22.016-24.064 30.208-35.84 25.088 18.432 50.688 41.472 75.776 68.096v-103.936c0-25.088-0.512-49.152-2.048-72.192h41.984c-1.536 22.528-2.048 46.592-2.048 72.192v141.824z"  horiz-adv-x="1024" />

    
    <glyph glyph-name="weibo" unicode="&#58899;" d="M438.330935 312.32a16.649209 16.649209 0 0 1-4.71482-21.585036 13.113094 13.113094 0 0 1 19.448633-1.768058 17.606906 17.606906 0 0 1 5.893525 21.585036 13.702446 13.702446 0 0 1-20.627338 1.768058z m-53.704748-14.733813a40.665324 40.665324 0 0 1-36.318849-38.307914c0-17.754245 17.017554-29.983309 38.234245-27.478561s38.307914 18.711942 38.307913 36.318849-15.986187 31.972374-40.223309 29.688633zM512 896A512 512 0 1 1 1024 384 512 512 0 0 1 512 896z m230.436835-631.71223c-46.264173-98.642878-199.716835-146.748777-313.240864-138.129497-107.92518 8.471942-246.644029 44.201439-261.009496 174.89036 0 0-7.366906 58.935252 49.800288 135.698417 0 0 82.435683 115.218417 178.500143 148.074821s107.335827-22.690072 107.335828-55.325468c-5.083165-27.773237-14.733813-44.201439 21.437698-32.930072 0 0 94.51741 44.201439 133.414676 4.935827 31.383022-31.383022 5.156835-74.553094 5.156834-74.553093s-12.965755-14.733813 13.776116-19.595971 111.313957-44.12777 64.828777-143.065324z m-93.265036 272.575539a18.638273 18.638273 0 0 0 0 37.276547s115.80777 21.437698 102.031654-103.136691a6.482878 6.482878 0 0 0 0-1.989064 18.417266 18.417266 0 0 0-18.196259-15.396835 18.711942 18.711942 0 0 0-18.932949 18.785612s18.343597 82.951367-64.828777 64.5341z m195.886043-88.771223c-3.094101-21.29036-13.481439-28.067914-26.00518-28.067913-14.733813 0-26.962878 4.125468-26.962878 19.006618a79.341583 79.341583 0 0 0 5.230504 26.00518c1.54705 5.377842 14.14446 39.265612-8.324605 89.728921-41.181007 69.175252-124.132374 70.280288-133.930359 66.302158a123.469353 123.469353 0 0 0-24.45813-5.746187 27.183885 27.183885 0 0 0-27.036547 27.183885 27.55223 27.55223 0 0 0 19.74331 26.520864 1.915396 1.915396 0 0 0 0.663021 1.178705 30.425324 30.425324 0 0 0 2.578418 2.431079c11.566043 2.210072 52.74705 12.965755 92.823021 3.609784 71.606331-16.796547 169.954532-100.263597 125.679425-228.153094zM437.594245 430.632518c-112.713669-5.156835-203.842302-65.565468-203.842303-140.855252S324.880576 158.056978 437.594245 162.992806s204.063309 76.026475 204.063309 151.24259-91.275971 121.33295-204.063309 116.397122z m76.836834-189.403165c-34.477122-44.201439-103.136691-66.302158-169.438849-30.425324a58.935252 58.935252 0 0 0-30.425324 50.757985S301.748489 367.792806 415.12518 381.053237 548.834532 285.799137 514.431079 241.229353z"  horiz-adv-x="1024" />

    
    <glyph glyph-name="sousuo1" unicode="&#58882;" d="M979.976-84.294c-15.606-15.606-40.908-15.606-56.514 0l-238.314 238.314c-68.916-56.274-156.882-90.102-252.786-90.102-220.938 0-400.044 179.106-400.044 400.044s179.106 400.038 400.044 400.038 400.038-179.106 400.038-400.038c0-43.566-7.518-85.236-20.478-124.452-0.744-4.83-2.358-9.318-4.668-13.41-1.26-3.414-2.244-6.954-3.594-10.326l-2.256 2.262c-7.272-7.608-17.472-12.402-28.824-12.402-22.068 0-39.96 17.892-39.96 39.96l-0.366 3.708c0 10.506 4.14 19.986 10.764 27.12l-3.708 3.702c7.41 26.97 11.688 55.248 11.688 84.576 0 176.388-142.992 319.38-319.38 319.38-176.388 0-319.38-142.992-319.38-319.38 0-176.394 142.992-319.386 319.38-319.386 87.444 0 166.614 35.208 224.292 92.142 0.246 0.264 0.408 0.57 0.576 0.87l57.852-0.99 137.454-137.454 0.258 0.258 127.926-127.926c15.606-15.606 15.606-40.908 0-56.508z"  horiz-adv-x="1024" />

    
    <glyph glyph-name="weihu" unicode="&#59039;" d="M910.912 604.864l-45.824-46.016c-48.832-49.024-128.32-49.024-177.152 0s-48.832 128.832 0 177.856l45.824 46.016c25.28 25.408 8.384 55.296-37.184 48.192a228.224 228.224 0 0 1-126.72-64.576 231.04 231.04 0 0 1-62.144-210.624l-384.32-385.92a126.208 126.208 0 0 1 0-177.792 124.992 124.992 0 0 1 177.088 0l384.384 385.92a229.12 229.12 0 0 1 274.048 189.568c7.104 45.76-22.656 62.784-48 37.376z m-669.44-553.536c-16.32-16.384-42.752-16.384-59.072 0s-16.32 42.88 0 59.264a41.856 41.856 0 0 0 59.072-59.264z m-41.728 545.856L344.448 451.84l59.072 59.264-144.704 145.344-32.448 62.208-103.296 74.112L64 733.504 137.792 629.76l61.952-32.576z m484.288-308.288a20.8 20.8 0 0 1-29.504 0l-88.576-88.96a21.056 21.056 0 0 1 0-29.632l208.96-209.792c32.64-32.704 85.568-32.704 118.144 0 32.64 32.704 32.64 85.824 0 118.592l-209.024 209.792z"  horiz-adv-x="1024" />

    
    <glyph glyph-name="zhixiangjiantou" unicode="&#59008;" d="M500.48 771.84H215.04l335.36-382.08L215.04 7.68h285.44l339.2 384-339.2 380.16zM473.5232 94.72H399.36l248.32 298.88L399.36 692.48h67.84L729.6 391.68l-256.0768-296.96z"  horiz-adv-x="1024" />

    
    <glyph glyph-name="weixin2" unicode="&#59033;" d="M681.1 547h0.7l1.9-0.1h0.3c7.1-0.1 14.1-0.4 21-0.9-13 53.8-47.3 101.4-95.3 136.8-54 39.8-125.2 63.9-203.4 63.9-84.6 0-161.2-28.3-216.5-74.1-54.4-45.1-88.1-107.1-88.1-175.5 0-31.7 9.9-63.9 26-93.9 18.2-33.9 44.1-64.8 72.9-88.9l5.2-4.4 0.3-6.8 4-80.5 51.4 45.3 7.1 6.3 8.8-3.4c19.8-7.6 40.8-13.5 62.7-17.4 18.7-3.4 38.2-5.4 58.2-5.8-5 16.9-7.8 34.7-8.3 52.8 0 0.7 0 1.5-0.1 2.2v0.4 2.9c0 67.2 32.7 127.8 85.4 171.6 52 43 123.6 69.7 202.5 69.7 1-0.2 2.1-0.2 3.3-0.2z m-387.7 68.5c-22.8 0-41.2-18.5-41.2-41.2 0-22.8 18.5-41.2 41.2-41.2 22.9 0 41.3 18.5 41.3 41.2 0.1 22.7-18.4 41.2-41.3 41.2z m192.6 0c-22.8 0-41.2-18.5-41.2-41.2 0-22.8 18.5-41.2 41.2-41.2s41.2 18.5 41.2 41.2c0 22.7-18.5 41.2-41.2 41.2z m251.8-73.8c54.8-9.7 103.9-32.6 142.2-64.3 52.8-43.8 85.4-104.3 85.4-171.6 0-32-9.7-64-25.5-93.5-16.2-30.1-38.7-57.5-63.7-79.5l-4.4-89.3-1.6-32.5-24.2 21.6-57.4 50.6c-15.9-5.5-32.5-9.9-49.6-13.1-19.9-3.7-40.5-5.5-61.4-5.5-78.9 0-150.5 26.6-202.5 69.7-27.8 23.1-50 50.9-64.8 81.8-2.3 0-3.8-0.1-4.1-0.1-24.4 0-48.4 2.3-71.8 6.5-20.6 3.8-40.4 9.1-59.4 15.9l-68.7-60.7-24.3-21.6-1.6 32.5-5.1 106.2c-29.5 25.7-56.2 58.1-75.1 93.5-18.4 34.3-29.8 71.5-29.8 108.7 0 78.2 38 148.7 99.5 199.7 60.6 50.2 144.2 81.3 236.4 81.3 85.1 0 162.7-26.5 221.9-70.1 57.1-42.1 97-100.2 109.6-166.2z m16.8-160.2c19.4 0 35.1-15.7 35.1-35.1 0-19.3-15.7-35.1-35.1-35.1-19.4 0-35.1 15.8-35.1 35.1 0.1 19.4 15.7 35.1 35.1 35.1z m-167.2 0c19.4 0 35.1-15.7 35.1-35.1 0-19.3-15.7-35.1-35.1-35.1-19.3 0-35.1 15.8-35.1 35.1 0.1 19.4 15.8 35.1 35.1 35.1z m272.7 71.7c-46.6 38.5-111.1 62.4-182.4 62.4s-135.9-23.9-182.5-62.4c-45.7-37.9-74-90-74-147.4 0-57.3 28.3-109.4 74-147.3 46.7-38.6 111.2-62.4 182.5-62.4 19.4 0 38.1 1.7 55.8 4.9 18.5 3.3 36.2 8.4 52.9 14.8l8.9 3.3 7.1-6.3 40-35.3 3 63.6 0.3 6.9 5.3 4.4c24.1 20.2 46 46.2 61.4 74.8 13.5 25.1 21.7 52.1 21.7 78.6 0 57.4-28.3 109.5-74 147.4z"  horiz-adv-x="1024" />

    
    <glyph glyph-name="weihu1" unicode="&#58883;" d="M615.03488 230.56896a31.6672 31.6672 0 0 0-22.51776 9.29792l-66.8672 66.87232a11.6992 11.6992 0 0 0-3.46112 8.34048c0 3.1488 1.2288 6.11328 3.46112 8.3456l28.34432 28.34432c4.44928 4.4544 12.22656 4.46464 16.68608 0l66.87232-66.85696a31.65696 31.65696 0 0 0 9.3184-22.528 31.60064 31.60064 0 0 0-9.3184-22.51264 31.66208 31.66208 0 0 0-22.51776-9.30304z m-52.70016 114.42176a1.52064 1.52064 0 0 1-1.09568-0.45568l-28.34944-28.34944c-0.37888-0.37888-0.4608-0.80896-0.4608-1.10592s0.08192-0.72192 0.45568-1.09568l66.8672-66.87232c4.07552-4.06528 9.50272-6.30272 15.2832-6.30272s11.20256 2.24256 15.27296 6.30272a21.41696 21.41696 0 0 1 6.31808 15.26784 21.48352 21.48352 0 0 1-6.31808 15.28832l-66.87232 66.85696a1.50528 1.50528 0 0 1-1.1008 0.46592z m-146.31936-108.29824a44.91264 44.91264 0 0 0-31.96416 13.22496 44.9024 44.9024 0 0 0-13.22496 31.96416 44.8512 44.8512 0 0 0 13.22496 31.95392l121.05728 121.07264c-4.37248 25.28768 3.67104 50.91328 21.80608 69.04832a77.90592 77.90592 0 0 0 43.38176 22.02112c9.984 1.5616 17.99168-1.69472 20.66944-8.17664 2.10944-5.0944 0.48128-11.02848-4.36736-15.86688-8.09472-8.12032-14.67392-14.67904-14.67392-14.67904a34.72384 34.72384 0 0 1-10.2144-24.71936c0-9.34912 3.63008-18.13504 10.21952-24.72448a34.72896 34.72896 0 0 1 24.72448-10.22464 34.72896 34.72896 0 0 1 24.7296 10.22464l14.66368 14.6688c6.54336 6.54848 15.488 6.79936 20.49536 0.96256 3.39968-3.968 4.6592-10.10688 3.54304-17.28a77.7472 77.7472 0 0 0-22.02112-43.38688 78.03904 78.03904 0 0 0-55.53152-22.93248h-0.00512c-4.51584 0-9.04192 0.384-13.4912 1.15712l-121.07776-121.08288a44.80512 44.80512 0 0 0-31.94368-13.22496z m159.22688 279.44448c-1.04448 0-2.17088-0.09216-3.36896-0.27648a67.76832 67.76832 0 0 1-37.71392-19.14368c-16.33792-16.33792-23.25504-39.69024-18.49344-62.464l0.5632-2.70848-124.93312-124.9536c-6.59456-6.58432-10.22464-15.36-10.22464-24.70912s3.63008-18.12992 10.22464-24.72448c6.59456-6.58944 15.37536-10.22464 24.72448-10.22464s18.1248 3.63008 24.70912 10.22464l124.95872 124.95872 2.70848-0.5632c4.63872-0.9728 9.40032-1.46432 14.14656-1.46432 18.27328 0 35.42528 7.08096 48.29696 19.93728a67.5328 67.5328 0 0 1 19.13856 37.7088c0.7424 4.77184-0.13312 7.80288-1.2032 9.05216-0.54272 0.64-1.04448 0.72192-1.41824 0.72192-1.12128 0-2.64192-0.8448-4.05504-2.26304l-14.66368-14.6688a44.9024 44.9024 0 0 0-31.96928-13.22496 44.88704 44.88704 0 0 0-31.96416 13.22496 44.89728 44.89728 0 0 0-13.21984 31.96416c0 12.08832 4.69504 23.44448 13.21984 31.96928 0.01024 0.01024 6.57408 6.5536 14.66368 14.66368 1.7664 1.7664 2.60608 3.61472 2.1504 4.71552-0.48128 1.11616-2.59584 2.24768-6.27712 2.24768zM416 263.40352a18.36544 18.36544 0 0 0-13.07136 5.41184 18.5344 18.5344 0 0 0-0.01024 26.13248c6.99904 6.99904 19.14368 6.97856 26.14272 0.02048a18.36032 18.36032 0 0 0 5.43744-13.08672 18.3296 18.3296 0 0 0-5.43744-13.07648 18.33984 18.33984 0 0 0-13.06112-5.4016z m-0.00512 26.72128c-2.19648 0-4.26496-0.85504-5.82144-2.41152a8.27392 8.27392 0 0 1 0-11.65824c3.10784-3.10784 8.5504-3.10784 11.65824 0 1.56672 1.5616 2.42688 3.63008 2.42688 5.82656a8.25856 8.25856 0 0 1-8.26368 8.2432z m42.40384 102.72768l-49.36704 49.38752-20.20352 10.5728-26.85952 37.59104 25.03168 25.0368 37.59104-26.8544 10.57792-20.20864 49.36704-49.38752-26.1376-26.1376zM395.73504 460.75904l19.97824-10.72128 42.68032-42.69568 11.65824 11.65312-43.5968 43.94496-9.80992 18.7392-28.54912 20.39296-12.76416-12.76416 20.4032-28.54912z"  horiz-adv-x="1024" />

    
    <glyph glyph-name="anzhuo" unicode="&#59745;" d="M175.893033 535.524019h-15.255449c-15.659655 0-29.173436-5.062296-40.190351-15.037485-11.30651-10.249435-17.048281-23.027459-17.048281-37.96159v-250.063289c0-14.374382 5.741771-26.862811 17.048281-37.102013 11.005658-9.990538 24.530696-15.047718 40.190351-15.047717h15.255449c15.783475 0 29.100782 5.140067 39.588646 15.275914 10.580986 10.228969 15.94925 22.644743 15.949251 36.873816V482.524944c0 14.799054-5.368264 27.494191-15.949251 37.728276-10.487865 10.130731-23.804149 15.270798-39.588646 15.270799z m34.314526-303.062364c0-8.373715-3.098571-15.451924-9.482978-21.618367-6.477528-6.259564-14.602579-9.30697-24.831548-9.30697h-15.255449c-10.374278 0-18.851347 3.119037-25.929556 9.544377-6.788613 6.145977-10.083659 13.141298-10.083659 21.379937V482.524944c0 8.819876 3.296069 16.084327 10.083659 22.230304 7.078209 6.42534 15.566534 9.544377 25.929556 9.544377h15.255449c10.228969 0 18.35402-3.046383 24.831548-9.30697 6.384407-6.166443 9.482979-13.524015 9.482978-22.467711v-250.063289zM615.848183 715.233983c-10.228969 0-19.027355-3.611248-26.157753-10.736528-7.120165-7.125281-10.736529-15.923668-10.736529-26.152637 0-10.239202 3.617387-19.037589 10.736529-26.152636 7.130398-7.130398 15.928784-10.741645 26.157753-10.741645 10.218736 0 19.017122 3.611248 26.14752 10.736528 7.120165 7.120165 10.736529 15.918551 10.736529 26.157753 0 10.228969-3.617387 19.027355-10.736529 26.157753-7.130398 7.119141-15.928784 10.731412-26.14752 10.731412z m11.140735-48.035016a15.715937 15.715937 0 0 0-22.291703 0.005117c-3.088338 3.078105-4.51892 6.616698-4.51892 11.140734 0 4.51892 1.440815 8.06263 4.51892 11.140735 3.088338 3.088338 6.633071 4.524037 11.150968 4.524036 4.51892 0 8.052396-1.435699 11.140735-4.51892 3.078105-3.083222 4.51892-6.627954 4.51892-11.145851 0-4.524037-1.430582-8.06263-4.51892-11.145851zM903.551744 520.486534c-11.016915 9.980305-24.530696 15.037485-40.179095 15.037485h-15.265682c-15.648398 0-29.163203-5.057179-40.19035-15.042601-11.30651-10.254551-17.038048-23.022343-17.038049-37.956474v-250.063289c0-14.364149 5.731538-26.851555 17.038049-37.112246 11.016915-9.980305 24.540929-15.037485 40.19035-15.037484h15.265682c15.648398 0 29.173436 5.057179 40.190351 15.047717 11.30651 10.249435 17.038048 22.737864 17.038048 37.102013V482.524944c-0.001023 14.934131-5.732561 27.701922-17.049304 37.96159z m-4.177136-288.024879c0-8.238638-3.296069-15.233959-10.073426-21.379936-7.078209-6.42534-15.566534-9.544377-25.929556-9.544377h-15.265682c-10.363022 0-18.851347 3.119037-25.929556 9.534144-6.777357 6.15621-10.073426 13.151531-10.073426 21.390169V482.524944c0 8.80862 3.296069 16.084327 10.063193 22.230304 7.098675 6.42534 15.576767 9.544377 25.939789 9.544377h15.265682c10.363022 0 18.841114-3.119037 25.929556-9.534144 6.777357-6.15621 10.073426-13.430894 10.073426-22.240537v-250.063289zM407.311683 711.839677c-10.239202 0-19.037589-3.617387-26.14752-10.731412-7.130398-7.125281-10.746762-15.928784-10.746762-26.157753 0-10.223852 3.617387-19.022239 10.746762-26.14752 7.109931-7.130398 15.908318-10.741645 26.14752-10.741646 10.228969 0 19.027355 3.611248 26.167986 10.741646 7.120165 7.135514 10.726296 15.933901 10.726295 26.14752 0 10.223852-3.606131 19.022239-10.736528 26.152636-7.119141 7.125281-15.928784 10.736529-26.157753 10.736529z m11.151991-48.0299c-6.176676-6.176676-16.136515-6.17156-22.291703-0.005117-3.088338 3.093455-4.529153 6.633071-4.529153 11.145852 0 4.51892 1.440815 8.057513 4.539386 11.150967 3.067872 3.078105 6.611581 4.513804 11.130502 4.513804 4.529153 0 8.06263-1.435699 11.150968-4.513804 3.078105-3.093455 4.51892-6.633071 4.51892-11.150967-0.001023-4.513804-1.440815-8.057513-4.51892-11.140735zM743.195569 645.22756a213.779921 213.779921 0 0 1-28.095895 37.019125c-10.570753 11.161201-21.773909 21.022803-33.308616 29.29828-7.690146 5.528923-15.296381 10.327206-22.727631 14.332426l36.572964 58.087976c2.041496 2.601244 4.549619 7.68503 1.762133 15.09479-1.896186 5.04183-6.497994 9.171893-14.58109 13.208837-7.989975 4.353145-14.042831 6.384407-19.079544 6.384407-6.073322 0-10.591219-1.559519-13.8351-4.767584l-41.454134-64.445777c-32.251541 13.871939-67.072605 20.892843-103.656825 20.892842-19.358907 0-38.397518-2.083451-56.574506-6.192026-15.047718-3.394307-29.680996-8.06263-43.610241-13.912871l-39.194674 61.803602-1.461281 1.818415c-3.979638 3.979638-9.772574 4.870938-14.384615 5.202488-6.684236 0.476861-13.369495-2.103918-19.918655-7.653307-7.005554-4.793166-11.161201-9.834996-12.695137-15.426341-2.061962-7.643074-0.207731-12.508895 2.124384-15.45704l36.987402-58.015321c-17.296945-10.985192-34.593889-24.965601-51.569516-41.682332-20.686135-20.390399-35.992749-46.713928-45.506426-78.239945l-4.135181-13.679557h509.235027l-3.140527 13.089109c-3.626597 15.108093-9.596566 29.658484-17.752316 43.239804z m-459.220936-35.106566c8.446369 22.043039 20.322861 40.692794 35.422768 55.574736 18.778692 18.499329 37.858236 33.344432 56.730049 44.122917l9.66922 5.523807-48.024783 75.327616c0.580215 0.657986 1.792832 1.834788 4.218068 3.456728l1.099031 0.833995c2.694365 2.362814 4.16588 3.015683 4.964058 2.917446 0.497327-0.035816 0.921999-0.072655 1.27504-0.113587l47.226604-74.478272 8.446369 3.917216c15.089673 7.005554 31.194466 12.466939 47.889707 16.229636 16.644075 3.76679 34.106796 5.674233 51.901067 5.674233 36.666084 0 71.353095-7.637957 103.107309-22.706141l8.456603-4.015454 47.848774 74.943876c1.036609-0.243547 3.637854-1.072425 8.777921-3.871167 1.077541-0.539282 1.948375-1.01512 2.653433-1.425465l-47.319725-75.172074 11.192923-4.979408c9.482979-4.223185 19.546172-10.135848 29.909193-17.57119 10.435677-7.497765 20.61348-16.468067 30.272468-26.660197a192.363146 192.363146 0 0 0 25.308409-33.339316 134.62821 134.62821 0 0 0 11.431353-24.188912H283.974633zM261.921361 556.717713v-392.074653c0-15.223726 5.140067-28.251438 15.265682-38.72907 9.928117-10.281157 22.178115-15.638165 36.437887-15.94925v-108.071368c0-14.083763 5.140067-26.551726 15.275915-37.049824 10.228969-10.580986 22.644743-15.94925 36.873816-15.94925h24.582885c14.799054 0 27.494191 5.368264 37.723159 15.94925 10.135848 10.487865 15.275915 22.944572 15.275915 37.049824v108.061135h134.746914v-108.061135c0-14.105253 5.140067-26.561959 15.275915-37.049824 10.228969-10.580986 22.644743-15.94925 36.873815-15.94925h24.582885c14.799054 0 27.494191 5.368264 37.733393 15.959483 10.125615 10.487865 15.265682 22.954805 15.265682 37.039591v108.061135h1.25355c14.799054 0 27.494191 5.368264 37.733393 15.959483 10.125615 10.487865 15.265682 23.514553 15.265681 38.749536l-0.870833 392.054187H261.921361z m469.636147-416.056857c-6.166443-6.384407-13.524015-9.482979-22.467711-9.482979h-22.478967v-129.284505c0-8.519024-3.046383-15.815197-9.30697-22.291702-6.166443-6.384407-13.524015-9.482979-22.468734-9.482978h-24.582885c-8.373715 0-15.451924 3.098571-21.618367 9.482978-6.259564 6.477528-9.30697 13.762445-9.30697 22.291702V131.178901H422.132226V1.893372c0-8.529257-3.047406-15.815197-9.30697-22.291702-6.166443-6.384407-13.524015-9.482979-22.468734-9.482978H365.774661c-8.373715 0-15.451924 3.098571-21.608134 9.472745-6.269797 6.487761-9.317203 13.783934-9.317203 22.301935V131.178901h-19.928888c-8.953929 0-16.302291 3.098571-22.468734 9.482978-6.259564 6.477528-9.30697 14.322194-9.30697 23.981181V535.49332h456.888821l0.828878-370.85026c0.001023-9.648754-3.045359-17.504676-9.304923-23.982204z"  horiz-adv-x="1024" />

    
    <glyph glyph-name="ic_android_px" unicode="&#59667;" d="M256.011 127.989c0-23.466 19.199-42.665 42.665-42.665h42.665v-149.327c0-35.412 28.585-63.997 63.997-63.997s63.997 28.585 63.997 63.997v149.327h85.33v-149.327c0-35.412 28.585-63.997 63.997-63.997s63.997 28.585 63.997 63.997v149.327h42.665c23.466 0 42.665 19.199 42.665 42.665v426.649h-511.978v-426.649zM149.349 554.638c-35.412 0-63.997-28.585-63.997-63.997v-298.654c0-35.412 28.585-63.997 63.997-63.997s63.997 28.585 63.997 63.997v298.654c0 35.412-28.585 63.997-63.997 63.997zM874.651 554.638c-35.412 0-63.997-28.585-63.997-63.997v-298.654c0-35.412 28.585-63.997 63.997-63.997s63.997 28.585 63.997 63.997v298.654c0 35.412-28.585 63.997-63.997 63.997zM662.607 803.8l55.678 55.678c3.849 3.849 6.23 9.166 6.23 15.039 0 11.746-9.522 21.269-21.269 21.269-5.873 0-11.19-2.381-15.039-6.23l-63.144-62.931c-33.012 16.802-71.99 26.651-113.267 26.666-40.754-0-79.152-9.813-113.497-26.879l-63.357 63.357c-3.849 3.849-9.166 6.23-15.039 6.23-11.746 0-21.269-9.522-21.269-21.269 0-5.873 2.381-11.19 6.23-15.039l55.891-55.891c-63.357-46.718-104.742-121.808-104.742-206.498h511.978c0 84.903-41.598 159.993-105.382 206.498zM426.67 682.632h-42.665v42.665h42.665v-42.665zM639.995 682.632h-42.665v42.665h42.665v-42.665z"  horiz-adv-x="1024" />

    
    <glyph glyph-name="fengsu" unicode="&#58913;" d="M529.227863 337.454545c1.32987 24.542149-6.407556 45.578276-22.728689 62.866588-25.146635 26.7183-70.120425 41.951358-123.315231 41.951358-43.885714 0-87.287839-10.638961-119.446517-29.136245-5.077686-3.022432-10.034475-6.286659-15.958441-10.518064 0 0-21.036128-11.847934-47.875325-46.666352-36.269185-47.149941-54.403778-103.004486-46.908146-146.164817 4.714994-27.322786 19.464463-49.446989 42.797638-64.075561 18.980874-11.968831 36.631877-17.771901 53.920189-17.771901 40.863282 0 71.208501 32.642267 103.488076 67.218891 22.728689 24.300354 46.061865 49.446989 75.077213 66.372609 29.982527 17.409209 50.897757 27.564581 64.800945 34.213931 27.443684 13.298701 34.818418 17.046517 36.148288 41.709563z m218.219599-117.51216c-32.400472 7.374734-65.88902 15.233058-94.904369 31.795986-29.982527 17.409209-49.326092 30.345218-62.020307 39.049823-16.562928 11.12255-24.904841 16.683825-34.69752 16.683825-6.286659 0-12.210626-2.297048-19.706258-6.165762-29.982527-15.233058-46.30366-42.31405-47.149941-78.34144-1.692562-65.88902 50.655962-152.572373 114.610626-189.566942 4.594097-2.65974 6.891145-3.143329 15.474852-7.858324 8.704604-4.714994 60.811334-18.013695 60.811335-18.013695 13.540496-2.176151 27.201889-3.143329 40.863282-3.143329 66.614404 0 145.439433 27.201889 148.582762 103.971664 3.022432 82.81464-57.668005 96.717828-121.864462 111.588194z m-190.655018 224.868949c0-34.697521-1.571665-57.909799-2.780638-73.263754-2.176151-30.70791-2.780638-38.928926 18.013696-52.348525 14.386777-9.309091 29.861629-14.144982 45.940968-14.144982 78.462338 0 152.330579 117.391263 152.330578 207.580638 0 11.001653-1.088076 22.728689-3.506021 35.785596 0 0-2.055254 20.552538-20.310744 65.042739-22.728689 55.129162-72.780165 101.795514-130.085478 101.795514-14.870366 0-29.619835-3.747816-43.523022-11.001653-73.384652-38.566234-55.129162-98.168595-35.906494-161.156081 9.79268-31.916883 19.827155-64.800945 19.827155-98.289492z"  horiz-adv-x="1024" />

    
    <glyph glyph-name="QQkongjian" unicode="&#59075;" d="M512 896A512 512 0 1 0 0 384 512 512 0 0 0 512 896zM522.387 733.412L623.83 505.48l227.048-25.71s32.709-7.367 8.619-25.563C835.407 436.01 699.561 279.39 699.561 279.39l33.446-230.584s7.735-35.509-24.9-14.734-191.539 115.734-191.539 115.734L312.136 30.388s-27.479-12.744-20.628 19.154c6.852 31.899 37.793 236.92 37.793 236.92L163.472 449.639s-19.817 18.27 3.388 23.722c23.206 5.451 228.375 31.014 228.375 31.014l103.136 225.059s8.914 21.806 24.016 3.978zM294.382 435.568s213.64 47.222 401.128 6.189l-221.818-168.85a1613.353 1613.353 0 0 1 268.23-19.154s-93.708-41.844-391.994-15.47L572.556 414.13s-27.479 17.312-278.174 21.437zM706.118 234.6a73.67 73.67 0 0 1 35.803 19.227l-36.834-10.24z"  horiz-adv-x="1024" />

    
    <glyph glyph-name="xiangxiazhishijiantou" unicode="&#58928;" d="M512 163.4L70.8 604.6h882.4L512 163.4z"  horiz-adv-x="1024" />

    
    <glyph glyph-name="news" unicode="&#58894;" d="M377.978 732.32c-86.661-32.478-158.384-95.132-202.689-175.076h142.331c15.837 80.978 39.981 138.254 60.358 175.076zM501.079 557.244v199.746c-30.377-0.975-59.707-5.825-87.925-13.402-21.516-35.988-49.378-96.437-66.953-186.345h154.878zM851.297 557.243c-43.594 78.655-113.136 140.966-197.863 173.899 20.244-36.844 44.041-93.783 59.717-173.899h138.146zM618.011 742.958c-28.281 7.924-57.829 12.742-88.299 14.079v-199.794h154.894c-17.471 89.405-45.129 149.649-66.595 185.715zM652.645 10.923c85.094 32.861 154.964 95.206 198.444 174.188h-138.107c-15.789-80.941-39.955-137.745-60.337-174.188zM529.712 185.11v-199.227c30.085 1.333 59.422 5.517 87.378 13.276 21.505 35.409 49.306 95.932 66.937 185.951h-154.315zM175.696 185.11c44.359-80.153 116.114-143.028 203.089-175.395-20.509 36.395-44.989 93.61-60.944 175.395h-142.145zM414.098-1.504c27.929-7.422 56.946-12.169 86.981-13.134v199.748h-154.299c17.739-90.562 45.764-151.29 67.317-186.614zM213.845 252.702v249.29h-31.628v-195.725l-130.933 195.725h-33.839v-249.29h31.628v195.894l130.934-195.894zM450.206 472.573v29.419h-180.246v-249.29h186.028v29.418h-153.039v84.854h137.905v29.248h-137.905v76.351zM545.091 252.702h33.667l52.885 189.942c2.265 8.048 4.702 17.796 7.311 29.248 0.791-3.629 3.402-13.378 7.823-29.248l52.544-189.942h31.798l68.356 249.289h-33.158l-39.108-160.183c-5.102-20.406-9.242-38.49-12.415-54.245-3.969 27.548-10.431 56.965-19.386 88.255l-35.709 126.175h-39.79l-47.442-168.347c-1.135-4.081-4.877-19.444-11.222-46.083-2.95 16.891-6.463 33.895-10.544 51.014l-37.919 163.415h-33.839l66.147-249.29zM1007.1 358.556c-6.916 10.258-17.629 18.733-32.14 25.422-9.978 4.533-28.371 9.834-55.179 15.9-26.811 6.063-43.39 11.988-49.738 17.77-6.461 5.781-9.692 13.15-9.692 22.107 0 10.314 4.56 19.131 13.687 26.443 9.125 7.312 23.663 10.967 43.617 10.967 19.156 0 33.639-4.025 43.445-12.073 9.804-8.051 15.558-19.954 17.261-35.71l31.627 2.38c-0.569 14.624-4.65 27.717-12.244 39.281-7.596 11.563-18.448 20.32-32.562 26.272-14.114 5.952-30.411 8.927-48.887 8.927-16.779 0-32.027-2.835-45.742-8.502-13.718-5.67-24.146-13.973-31.287-24.912-7.141-10.942-10.713-22.702-10.713-35.285 0-11.452 2.916-21.795 8.756-31.034 5.838-9.242 14.708-16.978 26.612-23.212 9.181-4.875 25.221-10.062 48.123-15.559 22.896-5.5 37.69-9.551 44.381-12.158 10.427-3.969 17.91-8.87 22.446-14.708 4.531-5.841 6.8-12.669 6.8-20.491 0-7.711-2.354-14.823-7.056-21.342-4.706-6.519-11.877-11.648-21.51-15.389-9.637-3.742-20.746-5.612-33.329-5.612-14.171 0-26.925 2.466-38.258 7.397-11.338 4.931-19.7 11.393-25.082 19.386-5.388 7.991-8.817 18.221-10.289 30.692l-31.117-2.72c0.452-16.666 5.017-31.603 13.687-44.809 8.673-13.207 20.631-23.099 35.879-29.673 15.246-6.573 34.15-9.862 56.71-9.862 17.796 0 33.808 3.261 48.037 9.777 14.225 6.517 25.137 15.645 32.734 27.378 7.594 11.733 11.392 24.231 11.392 37.495 0 13.377-3.459 25.195-10.371 35.456z"  horiz-adv-x="1024" />

    
    <glyph glyph-name="chanpin" unicode="&#58919;" d="M511.7952 389.290667c-7.2704-2.884267-5.358933-3.3792-14.250667 0.170666L259.242667 488.430933a10.0864 10.0864 0 0 0-0.4096 14.250667l232.3456 98.850133c5.2736 2.4576 10.615467 3.857067 20.258133-0.1536l236.612267-96.955733a10.0864 10.0864 0 0 0 0.4096-14.250667L511.7952 389.290667zM518.9632 119.808c0-6.024533 4.898133-10.922667 10.939733-10.922667l226.781867 118.254934c8.874667 5.5296 10.922667 15.291733 10.922667 29.525333V456.2432a10.871467 10.871467 0 0 1-10.922667 10.888533l-226.781867-95.197866c-10.939733-4.266667-10.939733-9.847467-10.939733-15.872V119.808zM480.8704 371.933867l-226.833067 95.197866a10.888533 10.888533 0 0 1-10.9056-10.888533v-229.341867c0-2.474667-1.4336-5.9392 10.9056-10.9056l226.833067-107.1104a10.922667 10.922667 0 0 1 10.9056 10.922667V356.061867c-0.017067 6.0416-0.017067 11.605333-10.9056 15.872z m-74.069333-56.439467c-23.415467 10.069333-87.0912 38.126933-87.0912 38.126933-4.744533 2.065067-7.168 2.901333-7.150934 6.724267l-0.017066 25.224533c-0.119467 3.293867 1.877333 7.645867 5.7344 6.178134l89.412266-39.287467c8.362667-3.908267 5.819733-4.420267 6.178134-19.421867v-12.4928c0.017067-2.474667-2.321067-7.082667-7.0656-5.051733z"  horiz-adv-x="1024" />

    
    <glyph glyph-name="taobao" unicode="&#58884;" d="M551.3-128h651.92c1.004 0 2.004 0.022 3.005 0.038h-657.929c1.001-0.017 2-0.038 3.005-0.038zM1141.48 58.021v651.958c0 102.312-83.709 186.021-186.021 186.021h-651.92c-102.312 0-186.021-83.709-186.021-186.021v-651.958c0-101.308 82.077-184.363 183.016-185.983h657.929c100.939 1.622 183.016 84.677 183.016 185.983zM280.052 636.772c4.009 8.882 9.554 16.454 16.683 22.692 7.11 7.109 15.346 12.447 24.692 16.010 9.346 3.545 19.355 5.337 30.029 5.337 10.674 0 20.892-1.792 30.7-5.337 9.783-3.563 18.228-8.902 25.358-16.010 7.109-6.238 12.674-13.81 16.683-22.692 4.001-8.909 6.007-18.246 6.007-28.029 0-9.801-2-19.145-6.007-28.029-4.002-8.907-9.574-16.474-16.683-22.69-7.13-6.236-15.582-11.346-25.358-15.346-9.801-4.009-20.026-6.009-30.7-6.009-10.674 0-20.683 2-30.029 6.009-9.346 4.001-17.582 9.11-24.692 15.346-7.129 6.216-12.674 13.783-16.683 22.69-4.001 8.884-6.001 18.228-6.001 28.029 0 9.783 2 19.12 6.001 28.029zM430.869 323.136c-4.009-22.248-12.682-45.839-26.028-70.738v0.007c-9.801-17.81-18.019-34.493-24.692-50.048-6.673-15.582-13.138-30.493-19.354-44.711-6.238-14.245-12.238-28.029-18.019-41.375-5.794-13.346-11.801-26.692-18.012-40.039-9.801 7.11-19.811 14.454-30.029 22.020-10.245 7.547-20.69 15.346-31.365 23.356-9.801 7.11-19.811 14.454-30.029 22.020-10.238 7.554-20.69 14.891-31.365 22.021 11.554 8.889 23.356 17.562 35.367 26.027 12.010 8.446 23.791 16.683 35.366 24.692 11.554 8.882 22.899 17.784 34.036 26.692 11.111 8.882 21.12 18.228 30.029 28.029 18.683 18.683 28.029 36.473 28.029 53.385 0 16.891-5.337 32.902-16.019 48.048-11.573 15.118-27.356 29.565-47.376 43.375-20.019 13.782-41.603 26.901-64.731 39.366 4.444 5.337 8.882 10.453 13.346 15.346 4.444 4.881 8.882 10.010 13.346 15.355 4.444 5.337 9.117 10.674 14.012 16.010 4.88 5.337 9.553 10.218 14.017 14.682 37.366-21.356 66.731-42.704 88.087-64.058 21.349-21.356 36.030-42.711 44.039-64.067 8.882-21.349 11.346-43.167 7.345-65.395zM1056.132 352.501c-0.893-24.921-2.229-49.176-4.001-72.74-1.792-23.584-4.464-47.376-8.009-71.404h0.007c-3.565-26.692-9.339-48.048-17.347-64.058-8.009-16.019-18.248-28.484-30.701-37.374-11.573-8.9-25.148-14.903-40.703-18.011-15.575-3.128-32.258-4.673-50.048-4.673-13.346-0.899-26.484-1.336-39.375-1.336h-38.032c-13.346 0-26.484 0.209-39.373 0.664-12.909 0.437-26.028 0.672-39.375 0.672 0 3.545-0.227 7.337-0.664 11.339-0.457 4.007-0.666 7.781-0.666 11.344-0.899 4.446-1.335 8.446-1.335 12.018 0 3.545-0.464 7.546-1.336 12.010h24.020c8.009 0 16.019-0.464 24.021-1.336h25.363c8.009 0 16.012 0.437 24.020 1.336 16.019 0.879 30.029 3.108 42.041 6.673 12.017 3.552 22.026 9.344 30.029 17.353 8.008 8.009 14.017 18.683 18.017 32.029 4.009 13.346 6.009 29.802 6.009 49.384l4.001 152.145c0.881 20.456 1.336 41.146 1.336 62.058 0 20.9-2.229 40.247-6.673 58.058-5.337 17.79-13.575 32.91-24.692 45.375-11.131 12.454-27.356 20.9-48.712 25.363-16.012 3.545-32.029 5.11-48.048 4.666-16.010-0.455-32.485-1.563-49.376-3.337-16.019-0.893-32.036-2.456-48.048-4.666-16.019-2.234-32.493-3.799-49.384-4.671-2.671 0-5.565-0.464-8.673-1.336-3.128-0.899-6.465-1.336-10.010-1.336-2.671-0.899-5.565-1.792-8.673-2.671-3.128-0.894-6.465-1.793-10.010-2.666l50.712-38.709-41.373-38.702h256.249v-50.721h-152.152v-58.722h152.152v-41.375h-152.145v-102.767c6.211 1.772 12.218 3.337 18.012 4.671 5.781 1.336 11.781 2.444 18.019 3.337 6.216 1.78 12.225 3.11 18.017 4.009 5.774 0.879 11.783 2.209 18.019 4.001-2.671 2.673-4.9 5.781-6.673 9.346-1.798 3.552-4.007 6.673-6.68 9.344-1.792 3.545-3.792 6.882-6.001 10.010-2.235 3.11-4.237 6.446-6.009 10.010 4.444 1.773 9.117 3.545 14.017 5.338 4.875 1.778 10.010 4.007 15.348 6.673 4.444 1.772 9.344 3.545 14.681 5.343 5.338 1.772 10.218 3.545 14.682 5.337 11.554-7.135 21.356-14.911 29.358-23.356 8.009-8.465 14.225-17.582 18.69-27.363 4.438-9.801 7.337-20.019 8.673-30.695 1.336-10.68 0.666-22.255-2-34.702-4.464-4.463-8.909-8.673-13.346-12.681-4.464-4.002-8.909-7.794-13.346-11.339-5.343-3.572-10.245-7.344-14.682-11.346-4.464-4.007-8.909-7.801-13.346-11.346-2.671 3.545-5.128 7.554-7.344 12.012-2.229 4.444-4.673 8.889-7.339 13.346-2.671 3.55-5.128 7.552-7.344 12.017-2.229 4.438-4.666 8.882-7.337 13.346-69.404-25.82-128.791-42.94-178.173-51.385-49.378-8.465-88.751-8.673-118.115-0.666-29.358 8.884-48.503 25.793-57.385 50.714-8.902 24.901-7.574 58.722 4.001 101.433h101.433c0-16.911 0.879-30.486 2.671-40.711 1.773-10.237 4.438-18.474 8.009-24.685 4.438-5.343 9.774-9.135 16.012-11.344 6.216-2.235 13.788-3.8 22.69-4.673h5.338v118.779h-150.81v40.039h150.815v61.394h-29.363v8.009l-62.73-60.058-54.719 26.692 105.44 136.126c-11.574-4.458-22.483-9.801-32.702-16.010-10.238-6.238-20.248-12.911-30.029-20.019-8.902-7.137-17.347-14.682-25.356-22.692-8.009-8.009-15.582-16.474-22.692-25.363-0.899-2.666-1.792-5.128-2.671-7.337-0.893-2.229-1.792-4.673-2.666-7.339-0.899-1.798-2-3.799-3.337-6.007-1.336-2.229-2.462-4.673-3.337-7.339-7.135 5.337-13.808 10.447-20.019 15.346-6.236 4.881-12.909 9.548-20.026 14.012-6.229 4.444-12.674 9.117-19.347 14.017-6.673 4.875-13.575 10.010-20.692 15.346 10.682 16.891 21.564 33.574 32.702 50.048 11.117 16.456 22.020 33.139 32.7 50.048 10.675 16.012 21.564 32.239 32.695 48.714 11.117 16.454 22.020 33.137 32.702 50.048 8.882-2.673 18.011-5.565 27.356-8.675 9.346-3.128 18.454-6.007 27.363-8.673 8.884-2.671 18.012-5.572 27.358-8.68 9.344-3.128 18.454-6.002 27.356-8.673-2.664-5.337-4.9-10.467-6.673-15.346-1.792-4.901-4.001-9.574-6.673-14.012-1.792-5.343-3.792-10.472-6.007-15.353-2.229-4.9-4.231-9.566-6.002-14.010 42.704 19.562 89.858 34.029 141.471 43.375 51.593 9.344 100.096 11.344 145.472 6.007 44.483-4.464 82.521-17.81 114.107-40.039 31.574-22.255 49.156-55.183 52.721-98.767 2.673-28.484 4.216-55.614 4.673-81.413 0.435-25.812 0.209-51.176-0.672-76.068z"  horiz-adv-x="1335" />

    
    <glyph glyph-name="juanliankai" unicode="&#58916;" d="M118.79936 577.04448h74.24512v-148.49536H118.79936m905.82528-282.14272c0 21.86752-17.64352 39.59808-39.40352 39.59808-21.77024 0-39.40864-17.73056-39.40864-39.59808s17.6384-39.59296 39.40864-39.59296c21.76-0.00512 39.40352 17.7152 39.40352 39.59296z m0 118.79424c0 21.86752-17.64352 39.59808-39.40352 39.59808-21.77024 0-39.40864-17.73056-39.40864-39.59808s17.6384-39.59808 39.40864-39.59808c21.76-0.00512 39.40352 17.72544 39.40352 39.59808z m0 118.79936c0 21.86752-17.64352 39.59808-39.40352 39.59808-21.77024 0-39.40864-17.73056-39.40864-39.59808s17.6384-39.59808 39.40864-39.59808c21.76 0 39.40352 17.73056 39.40352 39.59808z m-118.79424 44.54912V577.04448h-74.25024v-148.49536h74.25024zM0 621.5936h1024.62464V695.84384H905.8304v44.54912h-74.25024v-44.54912H193.04448v44.54912H118.79936v-44.54912H0v-74.25024z m0 163.34848h1024.62464V859.19232H0v-74.25024z m193.04448-356.39296H118.79936V-91.1872H905.8304V428.54912h-74.25024v-445.48608H193.04448V428.54912z m752.768-400.93696c0-21.86752 17.6384-39.59808 39.40864-39.59808 21.76 0 39.40352 17.73056 39.40352 39.59808s-17.64352 39.59808-39.40352 39.59808c-21.77024 0-39.40864-17.73056-39.40864-39.59808z"  horiz-adv-x="1024" />

    
    <glyph glyph-name="juanlianguan" unicode="&#58917;" d="M0 532.49536h118.79936v44.54912h74.24512v-44.54912h638.53568v44.54912h74.25024v-44.54912h118.79424v-74.25024H0zM0 695.84384h118.79936v44.544h74.24512v-44.544h638.53568v44.544h74.25024v-44.544h118.79424v-74.25024H0zM0 859.19232h1024.62464v-74.25024H0zM945.8176 27.61216a39.59808 39.40352 90 1 1 78.80704 0 39.59808 39.40352 90 1 1-78.80704 0ZM193.04448-16.94208h638.53568V85.76h74.25024v-176.95232H118.79936V85.76h74.24512zM0.18944 366.6176H118.9888v44.54912h74.24512v-44.54912h638.53568v44.54912h74.25024v-44.54912h118.79424v-74.24512H0.18944zM0.18944 203.776H118.9888v44.544h74.24512v-44.544h638.53568v44.544h74.25024v-44.544h118.79424v-74.25024H0.18944z"  horiz-adv-x="1024" />

    
    <glyph glyph-name="jian" unicode="&#58925;" d="M0 474.352941h1024v-180.705882H0V474.352941z"  horiz-adv-x="1024" />

    
    <glyph glyph-name="fengsu1" unicode="&#58890;" d="M660.473342 364.691808c1.331599 21.305592-5.326398 39.947984-19.973992 54.595578-22.637191 22.637191-61.253576 35.953186-107.859558 35.953186-38.616385 0-75.90117-9.321196-103.864759-25.30039-3.994798-2.663199-9.321196-5.326398-13.315995-9.321196l-41.279584-41.279584c-31.958388-41.279584-47.937581-89.217165-41.279584-127.83355 3.994798-23.968791 17.310793-42.611183 37.284785-55.927178 15.979194-10.652796 31.958388-15.979194 46.605982-15.979194 35.953186 0 62.585176 27.963589 90.548765 58.590377 19.973992 21.305592 39.947984 42.611183 65.248374 57.258778 26.63199 14.647594 43.942783 23.968791 55.927178 29.295188 23.968791 14.647594 30.626788 18.642393 31.958388 39.947985z m-127.83355 51.932379c34.621586 0 65.248375-9.321196 78.564369-23.96879 6.657997-6.657997 9.321196-14.647594 9.321197-23.968791-2.663199-1.331599-6.657997-2.663199-9.321197-5.326398-11.984395-6.657997-31.958388-15.979194-58.590377-30.626788-30.626788-17.310793-53.263979-42.611183-74.569571-65.248374-22.637191-25.30039-42.611183-46.605982-61.253576-46.605982-7.989597 0-15.979194 2.663199-25.30039 9.321196-6.657997 3.994798-11.984395 10.652796-15.979194 17.310793-2.663199 6.657997-5.326398 15.979194-5.326398 25.30039 0 21.305592 9.321196 45.274382 23.968791 67.911574 14.647594 23.968791 34.621586 42.611183 54.595579 54.595579 22.637191 13.315995 53.263979 21.305592 83.890767 21.305591zM850.892068 262.158648c-27.963589 6.657997-57.258778 13.315995-82.559168 27.963589-26.63199 14.647594-42.611183 26.63199-54.595579 33.289987-14.647594 9.321196-21.305592 14.647594-30.626788 14.647594-5.326398 0-10.652796-2.663199-17.310793-5.326398-26.63199-13.315995-39.947984-37.284785-41.279584-67.911573-1.331599-57.258778 43.942783-133.159948 99.869961-165.118336 3.994798-2.663199 7.989597-3.994798 13.315995-6.657997l53.263979-15.979194c11.984395-1.331599 23.968791-2.663199 35.953186-2.663199 58.590377 0 126.501951 23.968791 129.16515 90.548765 3.994798 71.906372-49.269181 83.890767-105.196359 97.206762z m42.611183-133.159948c-15.979194-10.652796-39.947984-15.979194-66.579974-15.979194-30.626788 0-59.921977 7.989597-82.559168 19.973992-21.305592 11.984395-41.279584 33.289987-57.258777 58.590377-14.647594 25.30039-23.968791 50.60078-22.637192 71.906372 0 15.979194 6.657997 26.63199 18.642393 33.289987 2.663199-1.331599 5.326398-3.994798 9.321197-6.657997 11.984395-7.989597 29.295189-19.973992 55.927178-34.621587 30.626788-17.310793 63.916775-25.30039 93.211963-31.958387 23.968791-5.326398 47.937581-10.652796 61.253576-19.973993 7.989597-5.326398 15.979194-13.315995 14.647595-37.284785-1.331599-15.979194-7.989597-27.963589-23.968791-37.284785zM707.079324 335.396619c-3.994798 2.663199-7.989597 5.326398-11.984396 6.657997 3.994798-2.663199 7.989597-3.994798 11.984396-6.657997zM684.442133 457.903771c0-30.626788-1.331599-50.60078-2.663199-63.916775-1.331599-26.63199-2.663199-33.289987 15.979193-45.274382 11.984395-7.989597 26.63199-11.984395 39.947985-11.984396 67.911573 0 133.159948 101.20156 133.159948 179.76593 0 9.321196-1.331599 19.973992-2.663199 30.626788l-18.642393 57.258778c-21.305592 42.611183-62.585176 89.217165-111.854356 89.217165-13.315995 0-25.30039-2.663199-38.616385-9.321196-63.916775-33.289987-47.937581-85.222367-30.626788-139.817946 6.657997-27.963589 15.979194-57.258778 15.979194-86.553966z m114.517555 153.13394c9.321196-13.315995 18.642393-30.626788 23.968791-46.605981 5.326398-15.979194 9.321196-33.289987 9.321196-47.937582 0-29.295189-11.984395-66.579974-33.289987-95.875162-18.642393-27.963589-42.611183-43.942783-59.921977-43.942783-5.326398 0-11.984395 1.331599-17.310793 5.326398 0 2.663199 0 6.657997 1.3316 10.652796 1.331599 13.315995 2.663199 34.621586 2.663199 66.579974 0 34.621586-10.652796 67.911573-18.642393 97.206762-6.657997 23.968791-14.647594 46.605982-13.315995 62.585175 1.331599 9.321196 3.994798 19.973992 25.30039 30.626788 15.979194 7.989597 31.958388 6.657997 49.269181-5.326398 9.321196-7.989597 21.305592-19.973992 30.626788-33.289987z"  horiz-adv-x="1290" />

    
    <glyph glyph-name="weixin" unicode="&#58995;" d="M513.344 864.896c-266.133333 0-481.856-215.722667-481.856-481.834667 0-266.133333 215.722667-481.856 481.856-481.856 266.112 0 481.856 215.722667 481.856 481.856 0 266.112-215.744 481.834667-481.856 481.834667z m-87.381333-595.349333c-25.984 0-46.890667 5.312-72.917334 10.410666l-72.810666-36.458666 20.821333 62.634666c-52.138667 36.458667-83.328 83.434667-83.328 140.608 0 99.114667 93.76 177.109333 208.234667 177.109334 102.4 0 192.085333-62.336 210.112-146.24a180.202667 180.202667 0 0 1-20.096 1.258666c-98.88 0-176.981333-73.834667-177.024-164.821333 0-15.189333 2.389333-29.781333 6.442666-43.690667-6.4-0.512-12.885333-0.810667-19.434666-0.810666z m307.114666-72.981334l15.658667-52.053333-57.088 31.338667c-20.842667-5.205333-41.749333-10.410667-62.506667-10.410667-99.072 0-177.088 67.626667-177.088 151.104 0 83.221333 77.973333 151.104 177.088 151.104 93.589333 0 176.917333-67.84 176.917334-151.104 0.021333-46.997333-31.146667-88.576-72.981334-119.978667zM504.021333 483.242667c15.744 0 26.069333 10.432 26.069334 26.026666 0 15.658667-10.325333 26.005333-26.069334 26.005334-15.594667 0-31.210667-10.304-31.210666-26.005334 0-15.573333 15.68-26.026667 31.210666-26.026666z m-145.706666 52.032c-15.637333 0-31.381333-10.325333-31.381334-26.005334 0-15.594667 15.744-26.026667 31.381334-26.026666 15.616 0 25.984 10.432 25.984 26.026666 0 15.701333-10.368 26.005333-25.984 26.005334zM571.733333 384.213333c-10.304 0-20.821333-10.432-20.821333-20.8 0-10.517333 10.496-20.842667 20.821333-20.842666 15.808 0 26.069333 10.304 26.069334 20.842666-0.021333 10.368-10.261333 20.8-26.069334 20.8z m114.56 0c-10.304 0-20.714667-10.432-20.714666-20.8 0-10.517333 10.453333-20.842667 20.714666-20.842666 15.658667 0 26.048 10.304 26.048 20.842666 0 10.368-10.389333 20.8-26.048 20.8z"  horiz-adv-x="1024" />

    
    <glyph glyph-name="fanhuidingbukuai-zhengchangtai-copy" unicode="&#59030;" d="M512 896C229.2736 896 0 666.760533 0 384c0-282.794667 229.2736-512 512-512 282.8288 0 512 229.205333 512 512 0 282.760533-229.1712 512-512 512z m252.962133-782.404267a16.9984 16.9984 0 0 0-24.1664 0l-226.372266 226.372267c-1.297067 1.365333-3.549867 1.297067-4.9152-0.068267l-226.304-226.304a17.066667 17.066667 0 0 0-24.132267 24.132267l226.372267 226.372267a37.717333 37.717333 0 0 0 53.111466 0.034133l226.372267-226.4064a17.066667 17.066667 0 0 0 0.034133-24.132267z m100.4544 192.341334a16.9984 16.9984 0 0 0-24.1664 0l-312.251733 312.251733a24.132267 24.132267 0 0 1-33.9968 0l-312.285867-312.251733a17.066667 17.066667 0 0 0-24.132266 24.132266l312.285866 312.251734a58.2656 58.2656 0 0 0 82.2272 0l312.251734-312.285867a16.964267 16.964267 0 0 0 0.068266-24.098133z"  horiz-adv-x="1024" />

    
    <glyph glyph-name="dapeng1" unicode="&#58900;" d="M969.949867 493.892267v-567.466667h-68.266667l-0.426667 565.504C892.091733 649.693867 721.1008 773.290667 512 773.290667S131.908267 649.693867 122.743467 491.9296l-0.426667-7.4752V-73.557333h-68.266667l4.1984 601.6C88.507733 706.2528 280.507733 841.557333 512 841.557333c231.4752 0 423.4752-135.3216 453.751467-313.514666M834.542933-73.5744h-51.2l-0.3072 407.074133C776.738133 442.180267 657.664 543.556267 512 543.556267c-145.681067 0-264.738133-101.358933-271.0528-210.056534l-0.3072-5.1712v-401.902933h-51.2l4.6592 443.1872C220.910933 498.653867 343.9104 595.592533 512 595.592533c168.0896 0 292.608-96.6144 319.419733-225.655466M545.536-73.5744h-71.202133l12.270933 178.397867c-20.804267 3.908267-78.165333 18.6368-93.405867 52.036266-7.799467 17.152-6.4 36.3008 7.5264 57.2928 5.7344 7.8336 16.981333 12.168533 28.859734 12.168534 23.7056 0 57.173333-17.117867 74.7008-54.289067 8.704 34.184533 28.4672 79.445333 72.0896 79.445333 8.482133 0 17.5104-1.792 26.845866-5.358933 11.434667-4.932267 32.904533-27.426133 32.290134-57.685333-0.512-24.866133-26.487467-61.422933-98.781867-90.811734l8.8064-171.195733z"  horiz-adv-x="1024" />

    
    <glyph glyph-name="kaifa1" unicode="&#58937;" d="M0 91.648c0-66.56 55.296-117.248 128-117.248h768c72.704 0 128 50.688 128 117.248v429.056H0v-429.056z m716.8 253.44c-12.8 11.776-16.896 27.136-4.096 38.912s29.696 15.36 42.496 4.096l128-97.28c7.68-3.584 12.8-11.264 12.8-19.456-1.024-8.192-4.096-16.384-8.704-23.552l-128-113.152c-12.288-10.24-30.208-10.24-42.496 0-12.8 11.776-12.8 31.232 0 38.912l102.4 89.6-102.4 81.92z m-298.496-171.52l128 210.432c8.704 15.36 25.6 19.456 42.496 11.776s21.504-23.552 12.8-38.912l-128-210.432c-5.632-8.704-15.36-14.336-25.6-15.36-4.096 0-12.8 0-16.896 4.096-12.8 7.168-21.504 22.528-12.8 38.4z m-277.504 120.832l128 97.28c12.8 10.752 31.744 9.216 42.496-3.584 9.728-9.216 10.24-25.088 1.024-34.816-1.536-1.536-3.072-3.072-5.12-4.096L204.8 271.36l102.4-89.6c10.752-8.192 12.8-23.552 4.608-34.304-1.536-1.536-2.56-3.072-4.608-4.608-12.288-10.24-30.208-10.24-42.496 0l-128 113.152c-6.144 6.144-9.216 14.848-8.704 23.552 0 3.072 4.096 7.168 12.8 14.848zM896 793.6H128C55.296 793.6 0 742.912 0 676.352v-117.248h1024V676.352c0 66.56-55.296 117.248-128 117.248zM213.504 637.44H128V715.776h85.504v-78.336z m170.496 0H298.496V715.776H384v-78.336z m170.496 0H469.504V715.776h85.504v-78.336z"  horiz-adv-x="1024" />

    


  </font>
</defs>
</svg>
